<svg xmlns="http://www.w3.org/2000/svg" viewBox="0 0 200 200" role="img" aria-labelledby="title desc">
  <title id="title">Clear Estimates logo</title>
  <desc id="desc">Orange Clear Estimates logo with dotted crescent and C mark on a white square.</desc>
  <rect width="200" height="200" fill="#fff"/>
  <g fill="#e65a2a">
    <circle cx="77" cy="9" r="4"/>
    <circle cx="82" cy="23" r="6"/>
    <circle cx="98" cy="33" r="13"/>
    <circle cx="121" cy="33" r="12"/>
    <circle cx="144" cy="38" r="10"/>
    <circle cx="165" cy="43" r="11"/>

    <circle cx="48" cy="50" r="6"/>
    <circle cx="31" cy="49" r="4"/>
    <circle cx="64" cy="38" r="11"/>
    <circle cx="52" cy="73" r="13"/>
    <circle cx="42" cy="94" r="11"/>
    <circle cx="32" cy="116" r="6"/>
    <circle cx="18" cy="117" r="3"/>

    <circle cx="48" cy="137" r="11"/>
    <circle cx="62" cy="156" r="12"/>
    <circle cx="83" cy="169" r="10"/>
    <circle cx="108" cy="176" r="13"/>
    <circle cx="132" cy="174" r="11"/>
    <circle cx="157" cy="166" r="8"/>

    <circle cx="108" cy="194" r="4"/>
    <circle cx="68" cy="188" r="3"/>
    <circle cx="39" cy="169" r="3"/>
  </g>
  <circle cx="111" cy="100" r="44" fill="#e65a2a"/>
  <circle cx="111" cy="100" r="35" fill="#fff"/>
  <rect x="139" y="66" width="48" height="68" fill="#fff"/>
</svg>
